<?xml version="1.0" encoding="UTF-8"?>
<svg version="1.1" viewBox="0 0 23 23" xmlns="http://www.w3.org/2000/svg">
  <rect x="0" y="0" width="24" height="24" ry=".14934" fill="#2563eb" stroke="#2563eb" stroke-width="3.254"/>
  <text fill="#000000" font-family="sans-serif" font-size="10.583px" style="line-height:1.25;shape-inside:url(#rect854);white-space:pre" xml:space="preserve"/>
  <g fill="#fff" opacity=".98392">
   <path d="m55.324 55.72q1.5455 0 2.7132 0.10304 1.202 0.06869 1.9576 0.37778 0.78991 0.30909 1.1677 0.85859 0.41212 0.5495 0.41212 1.4768 0 0.48081-0.2404 1.1333-0.24041 0.65253-0.82425 1.3051-0.5495 0.61819-1.4768 1.202-0.92728 0.5495-2.2667 0.85859-0.06869 0-0.06869 0.10303 0 0.06869 0.06869 0.06869 0.48081 0.10303 1.0647 0.24041 0.58384 0.10303 1.099 0.41212 0.51516 0.27475 0.85859 0.75556 0.37778 0.44647 0.37778 1.2364 0 0.96162-0.51516 1.9576-0.51516 0.96162-1.4768 1.7515-0.92728 0.7899-2.301 1.3051-1.3394 0.48081-3.0566 0.48081-0.99597 0-2.1293-0.20606-1.1333-0.17172-2.095-0.65253-0.24041-0.13738-0.44647-0.20606-0.20606-0.10303-0.34344-0.10303-0.27475 0-0.85859 0.27475-0.58384 0.27475-1.0647 0.65253l-0.20606-0.17173q0.44647-0.48081 0.58384-0.68687 0.17172-0.2404 0.27475-0.41212 0.5495-0.92728 1.1333-1.9232 0.58384-1.0303 1.099-1.9919 0.5495-0.99597 1.0303-1.8889 0.51516-0.92728 0.92728-1.6485 0.30909-0.61819 0.72122-1.3737 0.44647-0.7899 0.85859-1.6142 0.44647-0.82425 0.82425-1.6142 0.41212-0.82425 0.72122-1.4768 0.03435-0.06869 0.03435-0.17172 0-0.10303-0.20606-0.10303-0.48081 0-1.0647 0.06869t-1.1333 0.17172q-0.5495 0.06869-1.0303 0.13737-0.48081 0.06869-0.75556 0.06869-0.5495 0-0.5495-0.34344 0-0.37778 0.20606-0.58384 0.06869 0 0.10303 0.10303 0.06869 0.10303 0.27475 0.13738 0.2404 0.03434 1.099 0.03434 1.099 0 2.0606-0.03434 0.99597-0.06869 2.4384-0.06869zm4.6021 2.5071q0-0.65253-0.27475-1.0647-0.27475-0.44647-0.72122-0.68687-0.44647-0.24041-0.99597-0.30909-0.5495-0.10303-1.099-0.10303-0.37778 0-0.72122 0.10303-0.30909 0.06869-0.5495 0.37778-0.37778 0.48081-0.7899 1.1677-0.37778 0.65253-0.72122 1.2364-1.1333 2.0263-2.4384 4.5334-1.3051 2.5071-2.6101 5.0829-0.17172 0.34344-0.20606 0.61819 0 0.20606 0.17172 0.51516 0.17172 0.30909 0.5495 0.61819 0.41212 0.27475 1.0303 0.48081 0.61819 0.20606 1.5455 0.20606 1.1677-0.03434 2.301-0.44647 1.1677-0.44647 2.095-1.1677 0.92728-0.75556 1.4768-1.7515 0.58384-1.0303 0.58384-2.198 0-0.99597-0.75556-1.5111-0.75556-0.5495-2.1293-0.61819-0.48081 0-1.0647 0.13738-0.58384 0.10303-1.0303 0.10303-0.10303-0.03435-0.17172-0.06869-0.03435-0.06869-0.03435-0.27475 0-0.17172 0.10303-0.27475 0.10303-0.13738 0.27475-0.13738 0.37778 0 0.72122 0.10303 0.34344 0.10303 0.72122 0.10303 0.30909 0 0.68687-0.03435 0.41212-0.06869 0.68687-0.17172 0.61819-0.27475 1.202-0.68687 0.61818-0.44647 1.099-1.0303 0.48081-0.58384 0.75556-1.3051 0.30909-0.72122 0.30909-1.5455z" opacity="1" stroke-width="1.298"/>
   <g opacity="1" stroke-width=".26458" aria-label="C">
    <path d="m53.618 54.293q0.05292-0.13229 0.07937-0.39687 0.05292-0.29104 0.05292-0.50271 0-0.39687-0.13229-0.8202-0.13229-0.42333-0.50271-0.76729-0.34396-0.34396-0.9525-0.55562-0.58208-0.21167-1.5346-0.21167-0.76729 0-1.4287 0.3175-0.66146 0.29104-1.2435 0.71437-0.66146 0.47625-1.5081 1.4023-0.82021 0.92604-1.561 2.0902-0.74083 1.1377-1.2435 2.4342-0.47625 1.27-0.47625 2.4871 0 0.66146 0.23812 1.0848 0.23812 0.42333 0.60854 0.66146 0.39687 0.23812 0.89958 0.34396 0.50271 0.07937 1.0319 0.07937 2.2225 0 4.0481-1.1642 1.8256-1.1906 3.466-3.4396 0.07937-0.10583 0.13229-0.10583 0.10583 0 0.10583 0.37042 0 0.21167-0.07937 0.37042-0.05292 0.13229-0.13229 0.26458-1.2171 1.8256-3.2279 2.8839-1.9844 1.0319-4.3656 1.0319-0.76729 0-1.4817-0.15875-0.68792-0.13229-1.2435-0.47625-0.52916-0.37042-0.84666-0.9525-0.3175-0.60854-0.3175-1.5081 0-1.0054 0.37042-2.0637 0.39687-1.0583 1.0054-2.0373t1.3494-1.8256q0.76729-0.84666 1.5346-1.4287 0.9525-0.74083 2.1167-1.1642 1.1642-0.44979 2.4342-0.44979 0.9525 0 1.9315 0.21167 1.0054 0.18521 1.8521 0.68792 0.21167 0.10583 0.21167 0.3175-0.18521 0.3175-0.47625 1.0054-0.29104 0.66146-0.47625 1.1906z" fill="#fff" stroke-width=".26458"/>
   </g>
  </g>
</svg>
